<?xml version="1.0" encoding="utf-8"?>
<!-- Generator: Adobe Illustrator 16.0.0, SVG Export Plug-In . SVG Version: 6.00 Build 0)  -->
<!DOCTYPE svg PUBLIC "-//W3C//DTD SVG 1.1//EN" "http://www.w3.org/Graphics/SVG/1.1/DTD/svg11.dtd">
<svg version="1.1" xmlns="http://www.w3.org/2000/svg" xmlns:xlink="http://www.w3.org/1999/xlink" x="0px" y="0px"
	 width="227.27px" height="227.2705px" viewBox="0 0 227.27 227.2705" enable-background="new 0 0 227.27 227.2705"
	 xml:space="preserve">
<g id="Layer_1">
	<g id="layer1_1_" transform="translate(0,-1031.3622)">
		<g id="g3332_1_" transform="matrix(0.24008588,0,0,0.24008588,-2.2890548,790.44159)">
			<path id="path24_1_" fill="#FBC712" d="M482.8347,1207.9542l-200.813-18.3507
				l-157.6319-71.2595h179.2184l179.2266,89.5228"/>
			<path id="path26_1_" fill="#FBC712" d="M482.8347,1207.9542l212.8266-24.6514l145.6346-64.9589
				H662.0552l-179.2204,89.5228"/>
			<path id="path28_1_" fill="#F6871F" d="M482.8347,1745.6257l179.2204,21.3342l179.2408,68.2698
				H662.0552l-179.2204-89.7058"/>
			<path id="path30_1_" fill="#F15E22" d="M482.8347,1745.6257l-179.2266,19.2639
				l-179.2184,70.3401h179.2184l179.2266-89.7058"/>
			<path id="path32_1_" fill="#FCEE23" d="M213.998,1476.7889l-26.4513,210.4268l-63.1569,148.014
				v-179.2122l89.6082-179.3303"/>
			<path id="path34_1_" fill="#FCEE23" d="M213.998,1476.7889l-20.1507-192.7104
				l-69.4575-165.7345v179.2205l89.6082,179.1228"/>
			<path id="path36_1_" fill="#F04923" d="M751.6715,1476.7889l25.8615-194.8114l63.7487-163.6335
				v179.2205l-89.6102,179.1228"/>
			<path id="path38_1_" fill="#F04923" d="M751.6715,1476.7889l17.4824,197.8254l72.1279,160.6154
				v-179.2122l-89.6102-179.3303"/>
			<path id="path16_1_" fill="#F8B218" d="M124.3898,1118.344l358.4449,89.6102v268.6842H213.998
				l-89.6082-358.1113"/>
			<path id="path22_1_" fill="#F89D1C" d="M124.3898,1835.2297l89.6082-358.4408l268.8368-0.1505
				v268.7839l-358.4449,89.4414"/>
			<path id="path18_1_" fill="#F37321" d="M841.296,1118.344l-89.6245,358.4327l-268.8368-0.1383
				v-268.6985l358.4612-89.4128"/>
			<path id="path20_1_" fill="#F15E22" d="M841.296,1835.2297l-358.4612-89.604v-268.9873
				l268.8368,0.1505l89.6245,358.0748"/>
			<path id="path14_1_" fill="#F6871F" d="M482.8347,1207.9542L213.998,1476.7889
				l268.8368,268.8368l268.8368-268.849l-268.8368-268.9099"/>
		</g>
	</g>
</g>
</svg>
