<?xml version="1.0" encoding="UTF-8" standalone="no"?>
<!-- Created with Inkscape (http://www.inkscape.org/) -->

<svg
   xmlns:dc="http://purl.org/dc/elements/1.1/"
   xmlns:cc="http://creativecommons.org/ns#"
   xmlns:rdf="http://www.w3.org/1999/02/22-rdf-syntax-ns#"
   xmlns:svg="http://www.w3.org/2000/svg"
   xmlns="http://www.w3.org/2000/svg"
   xmlns:sodipodi="http://sodipodi.sourceforge.net/DTD/sodipodi-0.dtd"
   xmlns:inkscape="http://www.inkscape.org/namespaces/inkscape"
   width="107"
   height="21"
   id="svg3238"
   version="1.1"
   inkscape:version="0.48.3.1 r9886"
   sodipodi:docname="New document 9">
  <defs
     id="defs3240" />
  <sodipodi:namedview
     id="base"
     pagecolor="#ffffff"
     bordercolor="#666666"
     borderopacity="1.0"
     inkscape:pageopacity="0.0"
     inkscape:pageshadow="2"
     inkscape:zoom="5.6"
     inkscape:cx="106.13024"
     inkscape:cy="-8.7364518"
     inkscape:document-units="px"
     inkscape:current-layer="layer1"
     showgrid="false"
     fit-margin-top="0"
     fit-margin-left="0"
     fit-margin-right="0"
     fit-margin-bottom="0"
     inkscape:window-width="1680"
     inkscape:window-height="1026"
     inkscape:window-x="0"
     inkscape:window-y="24"
     inkscape:window-maximized="1" />
  <metadata
     id="metadata3243">
    <rdf:RDF>
      <cc:Work
         rdf:about="">
        <dc:format>image/svg+xml</dc:format>
        <dc:type
           rdf:resource="http://purl.org/dc/dcmitype/StillImage" />
        <dc:title></dc:title>
      </cc:Work>
    </rdf:RDF>
  </metadata>
  <g
     inkscape:label="Layer 1"
     inkscape:groupmode="layer"
     id="layer1"
     transform="translate(0,-1031.3622)">
    <g
       id="g3332"
       transform="matrix(0.24008588,0,0,0.24008588,-2.2890548,790.44159)">
      <path
         d="m 53.269398,1014.4105 -32.801678,32.8011 32.801678,32.8002 32.800001,-32.8002 -32.800001,-32.8011"
         style="fill:#f68712;fill-opacity:1;fill-rule:nonzero;stroke:none"
         id="path14"
         inkscape:connector-curvature="0" />
      <path
         d="M 9.5343166,1003.4768 53.269398,1014.4105 20.46772,1047.2116 9.5343166,1003.4768"
         style="fill:#fab20b;fill-opacity:1;fill-rule:nonzero;stroke:none"
         id="path16"
         inkscape:connector-curvature="0" />
      <path
         d="m 97.00448,1003.4768 -10.935081,43.7348 -32.800001,-32.8011 43.735082,-10.9337"
         style="fill:#f47216;fill-opacity:1;fill-rule:nonzero;stroke:none"
         id="path18"
         inkscape:connector-curvature="0" />
      <path
         d="m 97.00448,1090.9455 -43.735082,-10.9337 32.800001,-32.8002 10.935081,43.7339"
         style="fill:#f25c19;fill-opacity:1;fill-rule:nonzero;stroke:none"
         id="path20"
         inkscape:connector-curvature="0" />
      <path
         d="m 9.5343166,1090.9455 10.9334034,-43.7339 32.801678,32.8002 -43.7350814,10.9337"
         style="fill:#f89c0e;fill-opacity:1;fill-rule:nonzero;stroke:none"
         id="path22"
         inkscape:connector-curvature="0" />
      <path
         d="m 53.269398,1014.4105 -43.7350814,-10.9337 21.8668074,0 21.868274,10.9337"
         style="fill:#fbc707;fill-opacity:1;fill-rule:nonzero;stroke:none"
         id="path24"
         inkscape:connector-curvature="0" />
      <path
         d="m 53.269398,1014.4105 43.735082,-10.9337 -21.868275,0 -21.866807,10.9337"
         style="fill:#fbc707;fill-opacity:1;fill-rule:nonzero;stroke:none"
         id="path26"
         inkscape:connector-curvature="0" />
      <path
         d="m 53.269398,1080.0118 43.735082,10.9337 -21.868275,0 -21.866807,-10.9337"
         style="fill:#f68712;fill-opacity:1;fill-rule:nonzero;stroke:none"
         id="path28"
         inkscape:connector-curvature="0" />
      <path
         d="m 53.269398,1080.0118 -43.7350814,10.9337 21.8668074,0 21.868274,-10.9337"
         style="fill:#f25c19;fill-opacity:1;fill-rule:nonzero;stroke:none"
         id="path30"
         inkscape:connector-curvature="0" />
      <path
         d="m 20.46772,1047.2116 -10.9334034,43.7339 0,-21.8668 10.9334034,-21.8671"
         style="fill:#fff200;fill-opacity:1;fill-rule:nonzero;stroke:none"
         id="path32"
         inkscape:connector-curvature="0" />
      <path
         d="m 20.46772,1047.2116 -10.9334034,-43.7348 0,21.8667 10.9334034,21.8681"
         style="fill:#fff200;fill-opacity:1;fill-rule:nonzero;stroke:none"
         id="path34"
         inkscape:connector-curvature="0" />
      <path
         d="m 86.069399,1047.2116 10.935081,-43.7348 0,21.8667 -10.935081,21.8681"
         style="fill:#f1471d;fill-opacity:1;fill-rule:nonzero;stroke:none"
         id="path36"
         inkscape:connector-curvature="0" />
      <path
         d="m 86.069399,1047.2116 10.935081,43.7339 0,-21.8668 -10.935081,-21.8671"
         style="fill:#f1471d;fill-opacity:1;fill-rule:nonzero;stroke:none"
         id="path38"
         inkscape:connector-curvature="0" />
    </g>
    <g
       id="g3347"
       transform="matrix(0.94971056,0,0,0.94971056,14.894649,-13.858092)">
      <path
         d="m 9.5343166,1100.5672 6.8142754,0 0,7.6782 6.378705,0 0,-7.6782 6.81431,0 0,22.112 -6.81431,0 0,-8.7639 -6.378705,0 0,8.7639 -6.8142754,0 0,-22.112"
         style="fill:#4f4c4c;fill-opacity:1;fill-rule:nonzero;stroke:none"
         id="path40"
         inkscape:connector-curvature="0" />
      <path
         d="m 44.535454,1114.7787 -1.985133,-6.8094 -0.06145,0 -2.135357,6.8094 4.181936,0 z m -5.356114,-14.2115 6.654511,0 8.053988,22.112 -7.061352,0 -0.928464,-3.1577 -7.031363,0 -0.989841,3.1577 -6.847025,0 8.149546,-22.112"
         style="fill:#4f4c4c;fill-opacity:1;fill-rule:nonzero;stroke:none"
         id="path42"
         inkscape:connector-curvature="0" />
      <path
         d="m 61.261871,1110.9107 -7.279801,-10.3435 7.991144,0 3.343648,6.0067 3.284928,-6.0067 7.555643,0 -7.090012,10.4058 7.894187,11.7062 -8.20547,0 -3.777821,-6.5969 -3.902111,6.5969 -7.805479,0 7.991144,-11.7685"
         style="fill:#4f4c4c;fill-opacity:1;fill-rule:nonzero;stroke:none"
         id="path44"
         inkscape:connector-curvature="0" />
      <path
         d="m 78.35836,1100.5672 18.303591,0 0,5.6644 -11.48942,0 0,2.7576 10.436666,0 0,5.268 -10.436666,0 0,2.7549 11.831949,0 0,5.6671 -18.64612,0 0,-22.112"
         style="fill:#4f4c4c;fill-opacity:1;fill-rule:nonzero;stroke:none"
         id="path46"
         inkscape:connector-curvature="0" />
    </g>
  </g>
</svg>
